<?xml version="1.0" encoding="UTF-8" standalone="no"?>
<!-- Generator: Adobe Illustrator 19.1.0, SVG Export Plug-In . SVG Version: 6.00 Build 0)  -->

<svg
   version="1.1"
   id="Capa_1"
   x="0px"
   y="0px"
   width="100"
   height="100"
   viewBox="0 0 722.982 722.982"
   style="enable-background:new 0 0 722.982 722.982;"
   xml:space="preserve"
   sodipodi:docname="marker-tss.svg"
   inkscape:version="1.1.1 (c3084ef, 2021-09-22)"
   xmlns:inkscape="http://www.inkscape.org/namespaces/inkscape"
   xmlns:sodipodi="http://sodipodi.sourceforge.net/DTD/sodipodi-0.dtd"
   xmlns="http://www.w3.org/2000/svg"
   xmlns:svg="http://www.w3.org/2000/svg"><defs
   id="defs194">
		
	
			
		</defs><sodipodi:namedview
   id="namedview192"
   pagecolor="#ffffff"
   bordercolor="#666666"
   borderopacity="1.0"
   inkscape:pageshadow="2"
   inkscape:pageopacity="0.0"
   inkscape:pagecheckerboard="0"
   showgrid="false"
   inkscape:zoom="1.207499"
   inkscape:cx="412.4227"
   inkscape:cy="358.17835"
   inkscape:window-width="1463"
   inkscape:window-height="1081"
   inkscape:window-x="164"
   inkscape:window-y="77"
   inkscape:window-maximized="0"
   inkscape:current-layer="g153" />
<g
   id="g159">
	<g
   id="g153">
				<path
   style="fill:#010002"
   d="M 361.495,0 C 235.906,0 134.077,101.829 134.077,227.417 c -1.131,125.589 227.417,495.565 227.417,495.565 0,0 227.416,-368.845 227.416,-495.565 C 588.911,101.829 487.083,0 361.495,0 Z m 0,406.183 c -101.829,0 -184.423,-82.594 -184.423,-184.422 0,-101.828 82.594,-184.424 184.423,-184.424 101.828,0 184.422,82.594 184.422,184.423 0,100.697 -82.594,184.423 -184.422,184.423 z"
   id="path147" />
				
				
			<path
   style="fill:#000000;stroke-width:0.292482"
   d="m 393.11998,361.54174 c -11.10523,-0.76534 -21.56877,-1.54244 -23.25233,-1.72694 -1.68359,-0.18447 -6.3515,-0.5321 -10.3731,-0.77254 -9.14687,-0.54685 -36.4155,-2.29559 -47.67459,-3.05738 -4.66509,-0.31574 -9.86396,-0.64917 -11.55304,-0.74113 -5.00691,-0.27255 -30.09342,-1.86716 -32.39239,-2.05893 -1.39568,-0.11641 -2.1205,-0.30053 -2.1205,-0.5391 0,-0.49704 6.36992,-17.77406 6.6602,-18.06434 0.12813,-0.12817 2.7292,-0.2964 5.78019,-0.37409 3.05099,-0.0777 7.3899,-0.27429 9.64201,-0.43672 22.41667,-1.61799 46.97942,-3.18502 73.41301,-4.68359 12.41762,-0.704 28.54951,-1.37107 42.70237,-1.76584 11.70023,-0.32646 34.36663,-0.39783 34.36663,-0.10848 0,0.10225 -0.96028,1.25385 -2.13398,2.55921 -4.05097,4.50538 -7.13296,8.57382 -11.11877,14.67757 -2.79916,4.28653 -7.55682,12.47984 -9.37168,16.1392 -0.93506,1.88541 -1.32671,2.40593 -1.78985,2.37899 -0.32611,-0.0173 -9.67899,-0.66067 -20.78418,-1.42603 z M 273.94265,330.62758 c -5e-4,-0.13023 0.466,-1.44322 1.03664,-2.91737 l 1.03751,-2.68029 2.40002,-0.17479 c 3.49228,-0.25425 39.23014,-2.11565 53.73063,-2.79853 27.41753,-1.29113 31.18368,-1.48102 32.02678,-1.61489 0.93421,-0.1482 14.51977,-0.75035 32.75801,-1.45162 34.48796,-1.32605 53.67045,-1.29444 53.67045,0.0884 0,0.11746 -0.85289,0.58523 -1.89535,1.03936 -1.04243,0.45413 -2.78634,1.39563 -3.87538,2.09219 l -1.98002,1.26646 -22.22865,0.14371 c -12.22576,0.0791 -25.51908,0.28326 -29.54068,0.45368 -36.57793,1.55031 -51.44547,2.36769 -85.55102,4.70331 -6.99763,0.47922 -16.0792,1.0688 -20.18126,1.31021 -4.10206,0.24146 -8.34671,0.51499 -9.43255,0.60798 -1.08584,0.0929 -1.97464,0.0625 -1.97513,-0.068 z m 167.32854,-16.40609 c -3.22431,-6.55944 -10.20909,-13.13475 -19.33173,-18.19849 -12.61146,-7.00029 -30.97835,-11.87979 -51.18438,-13.59803 -3.13687,-0.26669 -6.06951,-0.57362 -6.51698,-0.68199 -0.80172,-0.19415 -0.78409,-0.21937 1.20812,-1.73475 3.26307,-2.48197 7.60912,-7.22356 10.27089,-11.20558 8.28516,-12.39479 13.06176,-29.24079 15.08776,-53.21138 0.63376,-7.49857 0.87427,-26.46433 0.4525,-35.68281 -1.5556,-33.99869 -6.42149,-68.00981 -16.58884,-115.950926 -1.36253,-6.424565 -2.43191,-11.952476 -2.37643,-12.284248 0.1779,-1.063437 9.80971,18.800979 16.15849,33.324719 26.14727,59.815965 44.92876,133.384335 51.89469,203.275075 1.01648,10.19876 2.2626,27.54239 1.99788,27.8071 -0.0584,0.0584 -0.54077,-0.77802 -1.07197,-1.85869 z m -171.12993,-10.7869 c 0,-0.0697 1.7275,-2.58836 3.83889,-5.59683 40.05494,-57.07322 70.22506,-122.07474 86.84203,-187.10132 4.39245,-17.188792 7.14701,-30.881825 9.91407,-49.283221 0.42978,-2.857918 0.5557,-3.3183 0.5768,-2.108911 0.0138,0.850917 -3.06598,51.024672 -6.84632,111.497202 -3.78034,60.47256 -6.87338,110.11982 -6.87341,110.3273 -7e-5,0.29363 -1.18224,0.3802 -5.33781,0.39087 -5.69694,0.0138 -8.93804,0.37765 -16.91329,1.89432 -15.09302,2.87032 -37.82287,9.78125 -61.32557,18.6458 -2.13146,0.80394 -3.87539,1.40461 -3.87539,1.33479 z M 371.41973,56.481001 c 0,-0.723893 0.057,-1.020014 0.12678,-0.658085 0.0697,0.361964 0.0697,0.95424 0,1.31617 -0.0698,0.361964 -0.12678,0.06563 -0.12678,-0.658085 z"
   id="path557" /><path
   style="fill:#2e6287;fill-opacity:1;stroke-width:0.828158"
   d="M 349.70638,702.53437 C 256.706,547.81105 182.94644,401.69671 152.67065,312.21558 c -14.5467,-42.99325 -19.57491,-70.84971 -17.69538,-98.03287 2.4976,-36.12217 12.00217,-68.55663 28.60695,-97.6215 32.48409,-56.859932 86.19458,-96.844197 148.63336,-110.6486919 18.22996,-4.0304347 27.92481,-5.01764812 49.2754,-5.01764812 21.3506,0 31.04544,0.98721342 49.27541,5.01764812 77.09201,17.0441589 140.839,74.5611689 166.04021,149.8131419 10.94551,32.6838 14.18668,67.60221 9.08136,97.83678 -12.90686,76.43648 -82.69096,226.96667 -191.76324,413.64947 -13.39659,22.92897 -31.3453,52.99401 -32.21151,53.95602 -0.33202,0.36874 -5.82511,-8.01636 -12.20683,-18.63356 z m 32.92436,-297.17226 c 27.82743,-3.36823 57.0673,-13.98551 79.48144,-28.86048 26.98278,-17.90692 48.60433,-41.73958 63.20543,-69.66908 13.96622,-26.71509 20.69206,-54.45397 20.68273,-85.30028 -0.0113,-37.34541 -10.31892,-71.69971 -30.63721,-102.11076 C 486.58776,76.352467 442.6277,48.059805 390.81776,39.2642 c -15.97852,-2.712622 -42.67504,-2.712622 -58.65355,0 -27.12869,4.605548 -51.66574,14.26983 -73.36482,28.895822 -44.09831,29.723902 -72.6516,75.239038 -80.37021,128.113428 -2.89804,19.85225 -1.69826,46.99029 2.9694,67.16565 15.3738,66.45138 66.84091,119.62346 132.47332,136.86184 8.1745,2.14704 19.43546,4.26066 28.57145,5.36271 5.73816,0.69218 33.71161,0.48228 40.18739,-0.30154 z"
   id="path7549" /><path
   style="fill:#2e6287;fill-opacity:1;stroke-width:0.828158"
   d="m 272.46399,301.54271 c 0,-0.27395 3.68112,-5.99706 8.18026,-12.71801 40.5836,-60.62502 69.27436,-126.47155 84.14332,-193.112535 1.58259,-7.092998 3.32465,-15.780491 3.87124,-19.30554 0.54661,-3.525048 1.12226,-6.280738 1.27924,-6.123755 0.15698,0.156983 -1.5787,30.43244 -3.85708,67.27879 -2.27837,36.84636 -5.09902,83.01823 -6.2681,102.60417 -1.16908,19.58594 -2.3115,36.82198 -2.5387,38.30231 l -0.41311,2.69151 h -5.23702 c -11.5658,0 -31.01282,4.56587 -58.04202,13.62739 -10.02071,3.35944 -18.87165,6.36586 -19.66875,6.68092 -0.7971,0.31507 -1.44928,0.3487 -1.44928,0.0747 z"
   id="path7588" /><path
   style="fill:#2e6287;fill-opacity:1;stroke-width:0.828158"
   d="m 437.85552,308.41567 c -9.73793,-12.78168 -32.51794,-22.39372 -60.62953,-25.58267 -4.55487,-0.5167 -9.19422,-1.13028 -10.30965,-1.36352 l -2.02807,-0.42406 2.58827,-2.02563 c 4.01699,-3.14376 10.10167,-11.68402 13.5214,-18.97817 6.86456,-14.64186 9.75556,-30.61914 10.44974,-57.7512 0.93739,-36.63722 -3.41567,-75.34765 -14.63478,-130.14286 -1.85417,-9.055943 -3.2287,-16.607874 -3.0545,-16.782069 0.60304,-0.603043 14.08904,29.179487 20.8675,46.083869 21.57864,53.81363 37.32919,117.08742 44.277,177.87152 1.61757,14.15159 3.01406,33.34691 2.41983,33.26161 -0.18072,-0.0259 -1.74096,-1.90101 -3.46721,-4.16682 z"
   id="path7627" /><path
   style="fill:#2e6287;fill-opacity:1;stroke-width:0.828158"
   d="m 380.53862,360.28274 c -13.20912,-1.03333 -43.89072,-3.13691 -68.18132,-4.6746 -24.29061,-1.5377 -44.54823,-3.03282 -45.01693,-3.32249 -0.53863,-0.33289 0.27175,-3.58644 2.20243,-8.84242 l 3.05463,-8.31573 6.76559,-0.49669 c 9.2781,-0.68115 68.82345,-4.39595 87.09691,-5.43364 8.19877,-0.46558 27.56556,-1.09084 43.0373,-1.38947 l 28.13046,-0.54297 -3.75316,4.48372 c -5.6243,6.71906 -9.12194,11.84493 -14.64387,21.46095 l -4.99342,8.69566 -4.84103,0.12824 c -2.66255,0.0705 -15.64847,-0.71722 -28.85759,-1.75056 z"
   id="path7666" /><path
   style="fill:#2e6287;fill-opacity:1;stroke-width:0.828158"
   d="m 275.39982,328.15762 c 0.30963,-1.02484 0.80058,-2.09491 1.091,-2.37792 0.29043,-0.28301 16.92557,-1.32368 36.967,-2.31259 20.04142,-0.98892 42.77436,-2.15072 50.51764,-2.5818 37.1273,-2.06689 83.13457,-3.10595 84.33584,-1.90469 0.30462,0.30462 -0.97566,1.42263 -2.84506,2.48447 -3.34149,1.89801 -3.79975,1.93063 -27.12392,1.93101 -25.53825,4.1e-4 -56.69959,1.34201 -106.42494,4.58195 -39.23831,2.55663 -37.23275,2.54677 -36.51756,0.17957 z"
   id="path7705" /><path
   style="fill:#ffffff;fill-opacity:1;stroke-width:0.828158"
   d="m 339.21077,404.44024 c -22.54464,-2.89286 -47.32997,-10.96638 -66.3327,-21.60709 -51.30919,-28.73092 -85.05996,-77.76897 -93.63185,-136.04206 -1.93428,-13.14955 -1.92494,-37.81041 0.0191,-50.51764 6.63161,-43.34661 27.23038,-82.26525 58.3442,-110.233647 28.2043,-25.353014 60.61375,-40.741159 97.79443,-46.433211 13.08304,-2.002903 39.09093,-2.002903 52.17396,0 60.88986,9.321728 111.34505,46.011241 138.62295,100.802498 13.14848,26.41045 18.93777,51.20988 18.93777,81.12318 0,29.71489 -5.48136,53.55336 -18.37601,79.91726 -27.12077,55.45009 -78.76057,93.41206 -139.12443,102.27456 -12.12661,1.7804 -37.23938,2.15177 -48.42747,0.71615 z m 78.652,-46.88301 c 4.60605,-8.3108 12.93665,-20.71408 17.38215,-25.87994 l 3.91969,-4.55487 -13.16391,-0.2653 c -15.94497,-0.32134 -51.99801,1.00759 -87.28406,3.21735 -14.34784,0.89852 -35.20402,2.20338 -46.34706,2.8997 -11.14305,0.69633 -20.36693,1.37289 -20.49752,1.50348 -0.13058,0.13059 -1.7144,4.37784 -3.51958,9.43833 l -3.28214,9.2009 3.48978,0.44315 c 1.91939,0.24373 24.73205,1.77592 50.6948,3.40485 25.96276,1.62894 55.77645,3.63969 66.25265,4.46835 10.47619,0.82865 21.34475,1.55331 24.15234,1.61035 l 5.10472,0.10372 z M 298.96505,329.63361 c 52.86447,-3.71118 90.28138,-5.40469 119.47434,-5.40747 l 23.82209,-0.002 4.71664,-2.6619 c 4.39006,-2.4776 4.57555,-2.70124 2.67896,-3.23008 -3.03611,-0.84659 -24.20011,-0.81366 -47.58635,0.074 -21.11613,0.80151 -31.9135,1.32271 -92.25769,4.45329 l -34.28663,1.77874 -1.07378,3.10559 -1.07377,3.10559 4.30448,-0.0118 c 2.36746,-0.007 11.94423,-0.54817 21.28171,-1.20368 z m 142.81802,-28.64109 c -6.77174,-84.1606 -30.34135,-172.55519 -63.88441,-239.589788 -2.93018,-5.855859 -5.5207,-10.453911 -5.75672,-10.21789 -0.23602,0.236019 1.44065,9.685565 3.72592,20.998992 10.58533,52.403446 14.01738,79.146896 14.75566,114.979886 0.36761,17.84227 0.18267,24.7565 -0.91534,34.2196 -2.94485,25.38017 -9.66012,43.21237 -20.3842,54.12961 -3.16943,3.22651 -5.7626,5.98047 -5.7626,6.11989 0,0.13943 1.58385,0.45535 3.51967,0.70204 28.41559,3.62119 38.86379,6.27475 52.83269,13.41801 8.31456,4.25181 15.63927,10.49022 19.61597,16.7068 1.56498,2.44645 2.98879,4.30472 3.16404,4.12948 0.17524,-0.17525 -0.23457,-7.19373 -0.91068,-15.59663 z m -157.77022,-2.0111 c 27.47325,-9.91099 51.3325,-16.04948 65.22964,-16.78225 l 8.45545,-0.44584 0.43534,-3.40243 c 0.23943,-1.87134 3.23364,-49.61365 6.65381,-106.09403 3.42017,-56.48038 6.44867,-105.300293 6.73,-108.488701 0.85385,-9.676981 -0.68263,-5.299229 -3.07007,8.747263 -12.36017,72.721038 -43.91812,149.388248 -89.06734,216.381078 -5.17009,7.67142 -9.40016,14.1 -9.40016,14.28573 0,0.74204 1.94866,0.15872 14.03333,-4.20082 z M 371.58052,55.745388 c -0.26436,-0.660649 -0.4606,-0.464411 -0.50034,0.500346 -0.0359,0.873016 0.15977,1.362146 0.43497,1.086957 0.27519,-0.27519 0.3046,-0.989477 0.0653,-1.587303 z"
   id="path8056" /></g>
</g>
<g
   id="g161">
</g>
<g
   id="g163">
</g>
<g
   id="g165">
</g>
<g
   id="g167">
</g>
<g
   id="g169">
</g>
<g
   id="g171">
</g>
<g
   id="g173">
</g>
<g
   id="g175">
</g>
<g
   id="g177">
</g>
<g
   id="g179">
</g>
<g
   id="g181">
</g>
<g
   id="g183">
</g>
<g
   id="g185">
</g>
<g
   id="g187">
</g>
<g
   id="g189">
</g>
</svg>
